<?xml version="1.0" standalone="no"?>
<!DOCTYPE svg PUBLIC "-//W3C//DTD SVG 20010904//EN"
 "http://www.w3.org/TR/2001/REC-SVG-20010904/DTD/svg10.dtd">
<svg version="1.0" xmlns="http://www.w3.org/2000/svg"
 width="2048.000000pt" height="2048.000000pt" viewBox="0 0 2048.000000 2048.000000"
 preserveAspectRatio="xMidYMid meet">

<g transform="translate(0.000000,2048.000000) scale(0.100000,-0.100000)"
fill="#000000" stroke="none">
<path d="M0 10240 l0 -10240 10240 0 10240 0 0 10240 0 10240 -10240 0 -10240
0 0 -10240z m10591 7700 c1339 -74 2496 -426 3629 -1103 199 -118 586 -381
668 -452 l27 -24 -172 -173 c-95 -95 -173 -176 -173 -179 0 -4 73 -65 163
-136 456 -365 881 -795 1210 -1225 l82 -107 176 176 c97 96 182 173 187 169
15 -9 190 -253 289 -401 706 -1060 1140 -2287 1257 -3560 89 -963 -7 -1953
-280 -2882 -239 -815 -621 -1599 -1121 -2300 -62 -87 -121 -169 -132 -182
l-18 -24 -177 179 c-175 177 -177 179 -194 158 -9 -12 -65 -82 -123 -155 -335
-422 -759 -844 -1199 -1191 l-130 -102 177 -178 c103 -103 174 -182 168 -186
-6 -4 -53 -39 -105 -77 -1049 -780 -2363 -1297 -3670 -1444 -362 -41 -459 -46
-905 -46 -457 1 -599 9 -965 55 -1058 135 -2069 485 -2989 1037 -215 129 -592
384 -711 480 -2 2 76 84 174 182 l178 178 -38 31 c-550 433 -914 789 -1297
1270 l-130 164 -178 -178 c-98 -98 -180 -176 -182 -174 -23 27 -170 233 -251
353 -790 1165 -1236 2489 -1317 3907 -14 257 -6 831 15 1070 67 740 223 1423
477 2089 259 677 640 1365 1063 1916 14 19 22 13 189 -154 96 -95 179 -172
185 -170 5 2 54 60 107 129 346 443 860 951 1278 1264 42 32 77 61 77 64 0 3
-79 84 -176 180 -96 96 -172 178 -167 182 30 28 242 180 372 267 1137 762
2438 1206 3791 1293 334 21 598 24 861 10z"/>
<path d="M9750 17429 c-1355 -98 -2607 -547 -3702 -1327 -65 -46 -120 -87
-122 -91 -3 -4 86 -98 197 -209 l202 -201 145 100 c983 681 2117 1074 3344
1160 221 15 836 6 1046 -15 1182 -121 2231 -509 3194 -1179 l99 -69 204 204
204 204 -98 71 c-639 462 -1382 831 -2128 1056 -476 144 -917 230 -1445 283
-193 19 -937 28 -1140 13z"/>
<path d="M10040 16383 c-901 -33 -1707 -235 -2505 -628 -280 -138 -455 -237
-690 -394 -88 -58 -163 -106 -167 -106 -5 0 -84 75 -178 168 -93 92 -173 167
-178 167 -11 0 -207 -150 -332 -254 -378 -314 -749 -701 -1045 -1091 -38 -49
-72 -96 -78 -102 -6 -9 41 -63 166 -187 l175 -175 -105 -158 c-815 -1228
-1161 -2664 -992 -4117 111 -959 438 -1853 974 -2667 l123 -186 -173 -173
c-99 -99 -177 -170 -184 -166 -21 13 -300 442 -391 601 -899 1574 -1117 3408
-615 5158 189 658 520 1351 919 1925 47 68 86 127 86 130 0 9 -393 402 -402
402 -9 0 -122 -155 -215 -295 -834 -1255 -1253 -2684 -1220 -4160 29 -1270
361 -2443 997 -3520 121 -205 377 -591 431 -650 6 -6 87 68 214 195 112 112
206 202 208 200 355 -497 833 -982 1371 -1394 l89 -68 176 175 176 175 160
-107 c251 -167 399 -252 690 -396 684 -338 1323 -523 2095 -606 238 -26 745
-36 990 -20 1100 72 2114 413 3028 1019 78 52 145 99 148 104 4 6 87 -70 185
-168 l178 -177 38 28 c524 392 1001 867 1383 1378 l43 58 -173 174 c-95 95
-171 177 -169 182 2 5 47 74 100 153 292 438 561 985 719 1460 371 1121 417
2301 134 3435 -170 680 -450 1312 -842 1903 l-115 174 173 173 c156 156 171
174 161 193 -17 33 -234 305 -331 417 -175 201 -432 460 -640 646 -143 127
-459 379 -477 379 -4 0 -85 -77 -180 -172 l-172 -171 -158 105 c-953 634
-1996 974 -3148 1028 -199 9 -281 10 -455 3z m-579 -2910 c630 -632 702 -708
768 -806 134 -199 221 -414 271 -666 l26 -135 872 874 872 875 262 -260 c747
-740 1028 -1021 1028 -1030 0 -5 -393 -403 -872 -882 -666 -666 -867 -873
-850 -873 48 0 231 -43 347 -81 238 -79 440 -194 610 -348 59 -53 966 -922
1340 -1284 l90 -87 -390 -389 -389 -390 -61 57 c-33 31 -348 333 -700 671
-352 338 -664 629 -693 648 -119 77 -271 114 -463 115 -138 0 -219 -10 -382
-49 -127 -31 -122 -25 -160 -188 -71 -301 -58 -539 39 -744 35 -74 55 -95 728
-769 l691 -692 -393 -393 -392 -392 -703 705 c-763 766 -779 784 -895 1010
-94 182 -148 343 -179 530 -9 58 -19 107 -20 110 -2 2 -396 -388 -876 -868
-480 -480 -877 -872 -882 -872 -5 0 -299 289 -651 641 l-642 642 870 870 c478
478 867 871 865 873 -2 2 -43 11 -92 19 -225 39 -453 125 -635 238 -139 87
-247 188 -898 839 l-673 674 364 364 c201 201 377 376 391 389 l27 25 672
-671 c669 -668 672 -671 757 -712 128 -63 248 -85 425 -78 77 3 174 12 215 21
101 21 232 57 246 68 15 11 59 169 78 278 47 269 17 501 -86 664 -27 42 -245
267 -699 722 l-660 660 387 387 c213 213 390 387 393 387 4 0 320 -314 702
-697z"/>
<path d="M8637 13512 l-117 -117 521 -520 c286 -286 543 -548 569 -583 155
-202 230 -469 216 -772 -4 -80 -10 -166 -15 -192 -7 -45 -7 -47 13 -36 42 22
133 84 235 158 l103 75 -5 145 c-10 295 -85 539 -235 770 -45 70 -152 183
-606 638 -303 303 -553 552 -556 552 -3 0 -58 -53 -123 -118z"/>
<path d="M11398 12193 c-727 -725 -878 -881 -878 -903 0 -40 -38 -242 -66
-354 -14 -54 -23 -100 -21 -102 5 -6 166 118 277 212 47 40 471 459 943 931
l857 858 -117 117 -118 117 -877 -876z"/>
<path d="M11904 11678 c-484 -486 -903 -910 -931 -943 -69 -83 -194 -247 -190
-251 1 -2 36 6 77 16 101 26 206 47 321 64 l97 15 837 838 c461 461 854 855
873 876 l35 37 -114 115 c-62 63 -116 115 -119 115 -3 0 -401 -397 -886 -882z"/>
<path d="M6907 11782 l-117 -117 552 -551 c580 -578 610 -604 786 -693 187
-94 383 -141 617 -148 l160 -4 61 83 c77 104 177 258 171 265 -3 2 -45 -1 -93
-8 -55 -7 -154 -10 -259 -6 -188 6 -293 26 -439 87 -163 68 -195 96 -771 671
-297 296 -543 539 -545 539 -3 0 -58 -53 -123 -118z"/>
<path d="M9985 10944 c-49 -29 -144 -79 -210 -110 l-120 -57 -50 -106 c-28
-58 -76 -152 -107 -209 -32 -57 -58 -105 -58 -107 0 -13 242 69 386 131 l83
36 50 122 c57 139 131 359 119 355 -2 0 -43 -25 -93 -55z"/>
<path d="M11446 10168 c-50 -58 -221 -316 -214 -323 2 -2 28 1 58 6 187 30
419 19 598 -27 115 -30 273 -103 357 -166 33 -24 290 -262 570 -529 281 -266
537 -509 570 -541 l61 -57 119 119 120 120 -45 44 c-93 90 -1027 974 -1095
1036 -170 155 -391 266 -636 319 -101 21 -276 41 -371 41 -54 0 -58 -2 -92
-42z"/>
<path d="M10773 10075 c-73 -25 -168 -60 -210 -79 -78 -33 -78 -33 -114 -105
-40 -79 -146 -387 -137 -396 3 -3 43 16 89 43 89 51 259 135 297 147 17 5 39
41 91 148 37 78 86 172 109 210 23 37 42 70 42 72 0 12 -45 2 -167 -40z"/>
<path d="M9550 9984 c-65 -20 -228 -54 -350 -73 l-105 -17 -870 -872 -869
-872 117 -118 117 -117 903 905 c675 676 924 932 983 1010 84 111 127 170 122
169 -2 0 -23 -7 -48 -15z"/>
<path d="M9854 9582 c-191 -146 -272 -224 -1128 -1081 l-859 -859 118 -116
c111 -109 120 -115 136 -100 10 9 405 403 878 875 l861 859 15 108 c17 112 60
318 76 360 5 14 8 26 6 28 -1 2 -48 -32 -103 -74z"/>
<path d="M10436 9109 c-76 -51 -156 -109 -178 -130 l-40 -38 7 -103 c23 -371
110 -635 285 -869 27 -36 297 -314 601 -618 l552 -553 117 120 118 121 -547
548 c-334 335 -564 573 -590 612 -96 141 -160 307 -187 481 -16 112 -18 311
-4 429 6 46 9 85 7 87 -2 2 -66 -37 -141 -87z"/>
<path d="M15817 14330 l-198 -200 69 -97 c355 -502 660 -1103 860 -1698 166
-493 272 -1002 324 -1550 21 -221 17 -963 -5 -1185 -81 -797 -270 -1490 -598
-2195 -159 -340 -386 -731 -594 -1021 l-56 -78 203 -203 c191 -191 204 -202
219 -185 58 59 335 482 460 699 507 885 818 1845 923 2848 49 470 49 1015 0
1500 -105 1041 -451 2075 -992 2970 -138 228 -389 594 -407 594 -5 0 -99 -89
-208 -199z"/>
<path d="M6117 4629 c-192 -192 -201 -202 -182 -216 530 -399 1223 -770 1870
-1001 1605 -571 3353 -561 4943 30 505 187 965 420 1437 726 149 97 365 251
365 261 0 9 -394 401 -404 401 -4 0 -25 -13 -45 -28 -142 -110 -487 -326 -741
-462 -984 -529 -2123 -801 -3250 -777 -528 12 -971 70 -1465 192 -782 194
-1473 503 -2148 961 -92 63 -170 114 -173 114 -3 0 -96 -90 -207 -201z"/>
</g>
</svg>
